<svg width="149" height="161" viewBox="0 0 149 161" fill="none" xmlns="http://www.w3.org/2000/svg">
<g clip-path="url(#clip0_1098_9862)">
<path d="M107.874 28.5C108.82 27.8477 109.014 26.6312 108.306 25.7828C107.599 24.9344 106.259 24.7754 105.312 25.4277L107.874 28.5ZM93.1908 108.445L93.2913 110.379L93.1908 108.445ZM18.4878 118.343L41.7889 110.632L23.0394 96.2977L18.4878 118.343ZM105.312 25.4277C81.2326 42.0251 65.5056 63.4428 61.9972 80.6668C60.2394 89.2962 61.5064 97.1624 66.7779 102.711C72.0665 108.278 80.9501 111.057 93.2913 110.379L93.0903 106.511C81.5102 107.147 74.1583 104.499 70.0369 100.161C65.8985 95.8045 64.5811 89.288 66.2042 81.3198C69.4574 65.3488 84.3528 44.7123 107.874 28.5L105.312 25.4277ZM93.2913 110.379C105.439 109.712 112.916 103.912 115.577 96.5997C118.191 89.4195 116.034 81.077 109.694 75.4846C103.275 69.8217 92.8195 67.1622 79.2105 70.8016C65.6707 74.4225 48.939 84.2723 29.4376 103.671L32.5831 106.259C51.8025 87.1408 67.8871 77.8556 80.3705 74.5172C92.7847 71.1974 101.559 73.7545 106.688 78.2787C111.897 82.8734 113.606 89.6887 111.516 95.4314C109.474 101.042 103.676 105.93 93.0903 106.511L93.2913 110.379Z" fill="#175CE1"/>
</g>
<defs>
<clipPath id="clip0_1098_9862">
<rect width="90.4708" height="132.61" fill="white" transform="translate(75.7773 160.497) rotate(-146.887)"/>
</clipPath>
</defs>
</svg>
